<?xml version="1.0" encoding="utf-8"?>
<!-- Generated by IcoMoon.io -->
<!DOCTYPE svg PUBLIC "-//W3C//DTD SVG 1.1//EN" "http://www.w3.org/Graphics/SVG/1.1/DTD/svg11.dtd">
<svg version="1.1" xmlns="http://www.w3.org/2000/svg" xmlns:xlink="http://www.w3.org/1999/xlink" width="32" height="32" viewBox="0 0 32 32">
<g>
</g>
	<path d="M30.943 28.224l-1.885 1.885-5.847-5.847 1.836-1.935 5.896 5.896zM13.167 1.333c6.533 0 11.833 5.299 11.833 11.833 0 2.559-0.823 4.92-2.203 6.857l-2.227 2.347c-2.028 1.636-4.596 2.631-7.404 2.631-6.536 0-11.833-5.299-11.833-11.833s5.297-11.835 11.833-11.835zM13.167 22.333c5.055 0 9.167-4.112 9.167-9.167s-4.112-9.167-9.167-9.167-9.167 4.112-9.167 9.167 4.112 9.167 9.167 9.167z" fill="#000000" />
</svg>
